<svg width="14" height="14" viewBox="0 0 14 14" fill="none" xmlns="http://www.w3.org/2000/svg">
<g clip-path="url(#clip0_372227_713)">
<path d="M13.6961 6.37211C13.9717 6.10355 14.0689 5.7094 13.9501 5.343C13.8309 4.9766 13.5206 4.71505 13.1393 4.65954L9.74952 4.16699C9.60514 4.14596 9.4804 4.05541 9.41592 3.9245L7.90042 0.853131C7.73025 0.508036 7.38488 0.293579 6.99998 0.293579C6.61536 0.293579 6.26998 0.508036 6.09982 0.853131L4.58404 3.92478C4.51956 4.05569 4.39453 4.14624 4.25016 4.16727L0.86033 4.65982C0.479353 4.71504 0.168741 4.97688 0.0495976 5.34328C-0.0692651 5.70968 0.0280117 6.10383 0.303582 6.37239L2.75625 8.7631C2.86081 8.86515 2.90875 9.01204 2.88408 9.15557L2.30546 12.5314C2.25416 12.8285 2.3321 13.1176 2.52441 13.3455C2.82325 13.7007 3.34495 13.8089 3.76209 13.5897L6.79365 11.9957C6.92036 11.9292 7.07987 11.9298 7.20631 11.9957L10.2381 13.5897C10.3856 13.6673 10.5429 13.7066 10.7052 13.7066C11.0015 13.7066 11.2824 13.5748 11.4755 13.3455C11.6681 13.1176 11.7458 12.828 11.6945 12.5314L11.1156 9.15557C11.0909 9.01176 11.1389 8.86515 11.2434 8.7631L13.6961 6.37211Z" fill="#E9E9E9"/>
</g>
<defs>
<clipPath id="clip0_372227_713">
<rect width="14" height="14" fill="white"/>
</clipPath>
</defs>
</svg>
